<svg id="Layer_1" data-name="Layer 1" xmlns="http://www.w3.org/2000/svg" width="406.45" height="69.34" viewBox="0 0 406.45 69.34"><defs><style>.cls-1{fill:#fff;}</style></defs><title>ecovative-logo</title><path class="cls-1" d="M302,0h-7.62a2.62,2.62,0,0,0-2.62,2.62V10a2.62,2.62,0,0,0,2.62,2.62H302A2.63,2.63,0,0,0,304.6,10V2.63A2.62,2.62,0,0,0,302,0h0"/><path class="cls-1" d="M24.1,16.2C10.59,16.2,0,27.62,0,42.2c0,14.83,10.73,26,25,26,8.25,0,14.73-2.95,20.4-9.27a2.62,2.62,0,0,0-.19-3.7h0L41,51.55a2.63,2.63,0,0,0-3.65.14C33.68,55.5,29.91,57.2,25.1,57.2a12.86,12.86,0,0,1-12.63-9.9H44.85A2.62,2.62,0,0,0,47.46,45a20.88,20.88,0,0,0,.1-2.37c0-15.52-9.66-26.35-23.49-26.35M23.9,27.12c6.61,0,10,4.77,11.23,10H12.46c1.56-6,6-10,11.43-10"/><path class="cls-1" d="M93.62,51a2.62,2.62,0,0,0-3.7.12h0C86.25,55.08,82.4,57,78.15,57c-7.88,0-13.83-6.39-13.83-14.87,0-8.29,5.89-14.79,13.4-14.79,5,0,8.29,2.38,11.7,5.94a2.63,2.63,0,0,0,1.9.81h0a2.63,2.63,0,0,0,1.9-.82l4.41-4.71a2.62,2.62,0,0,0,0-3.6,25.81,25.81,0,0,0-19.84-8.79c-14.1,0-25.57,11.71-25.57,26.09a25.78,25.78,0,0,0,25.58,26c10.35,0,16.25-5.1,20.23-9.53A2.63,2.63,0,0,0,97.87,55Z"/><path class="cls-1" d="M127.15,16.2a25.77,25.77,0,0,0-26,25.54q0,.28,0,.55a26,26,0,0,0,52,2.1q0-1.14,0-2.27A25.64,25.64,0,0,0,127.74,16.2h-.56m0,40.79c-7.8,0-13.92-6.53-13.92-14.87,0-8.57,5.78-14.79,13.74-14.79s14,6.57,14,15S135.19,57,127.17,57"/><path class="cls-1" d="M200.88,17.15H193.7a2.62,2.62,0,0,0-2.43,1.63L178.55,50,165.91,18.79a2.63,2.63,0,0,0-2.43-1.64H156.1a2.62,2.62,0,0,0-2.41,3.66L173.1,65.93a2.63,2.63,0,0,0,2.41,1.62h5.89A2.62,2.62,0,0,0,183.81,66L203.3,20.81a2.62,2.62,0,0,0-2.41-3.67"/><path class="cls-1" d="M227.16,16.55a39.76,39.76,0,0,0-17.37,4,2.62,2.62,0,0,0-1.38,3.29l2,5.46a2.62,2.62,0,0,0,3.35,1.57l.21-.08a28.71,28.71,0,0,1,12.5-3c6.39,0,10,2.61,10.6,7.75a50.69,50.69,0,0,0-11-1.14c-13.42,0-21.76,6.58-21.76,17.18,0,10.93,9.73,16.65,19.34,16.65A22.65,22.65,0,0,0,237.22,64v.51a2.62,2.62,0,0,0,2.61,2.63h6.43a2.62,2.62,0,0,0,2.58-2.63V37.18c0-13.11-7.9-20.64-21.68-20.64m-2.25,41c-4.3,0-8.64-2-8.64-6.38,0-6.07,7.31-6.73,10.45-6.73a43.62,43.62,0,0,1,10.54,1.29V48c0,5.41-5.31,9.5-12.35,9.5"/><path class="cls-1" d="M282.48,17.15H270.9V6.26a2.63,2.63,0,0,0-2.62-2.62h-6.67A2.62,2.62,0,0,0,259,6.26h0V17.15h-3.61a2.63,2.63,0,0,0-2.63,2.62v5.89a2.63,2.63,0,0,0,2.63,2.62H259v24.4c0,9.56,5.71,15.27,15.27,15.27a19.4,19.4,0,0,0,9.26-2.2,2.63,2.63,0,0,0,1.42-2.33V57.7a2.62,2.62,0,0,0-3.76-2.36,11.39,11.39,0,0,1-5.36,1.3c-3.58,0-4.91-1.31-4.91-4.83V28.29h11.58a2.62,2.62,0,0,0,2.61-2.63h0V19.77a2.62,2.62,0,0,0-2.62-2.62"/><path class="cls-1" d="M301.46,17.15h-6.67a2.62,2.62,0,0,0-2.62,2.62V64.55a2.62,2.62,0,0,0,2.61,2.63h6.68a2.62,2.62,0,0,0,2.64-2.6s0,0,0,0V19.77a2.62,2.62,0,0,0-2.62-2.62"/><path class="cls-1" d="M358.8,18.33a2.63,2.63,0,0,0-2.19-1.18h-7.19A2.63,2.63,0,0,0,347,18.78L334.27,50,321.63,18.79a2.62,2.62,0,0,0-2.43-1.64h-7.36a2.62,2.62,0,0,0-2.41,3.66l19.4,45.12a2.63,2.63,0,0,0,2.41,1.62h5.86A2.62,2.62,0,0,0,339.51,66L359,20.85a2.63,2.63,0,0,0-.22-2.48"/><path class="cls-1" d="M383,16.2c-13.51,0-24.1,11.42-24.1,26,0,14.83,10.73,26,25,26,8.25,0,14.73-2.95,20.4-9.27a2.62,2.62,0,0,0-.19-3.7h0l-4.19-3.67a2.63,2.63,0,0,0-3.65.14c-3.64,3.81-7.41,5.51-12.22,5.51a12.86,12.86,0,0,1-12.64-9.9h32.38A2.63,2.63,0,0,0,406.35,45a20.89,20.89,0,0,0,.1-2.37c0-15.52-9.66-26.35-23.5-26.35m-.17,10.87c6.61,0,10,4.77,11.23,10H371.36c1.56-6,6-10,11.43-10"/></svg>