<?xml version="1.0" encoding="utf-8"?>
<!-- Generator: Adobe Illustrator 18.1.1, SVG Export Plug-In . SVG Version: 6.00 Build 0)  -->
<svg version="1.1" id="Layer_1" xmlns="http://www.w3.org/2000/svg" xmlns:xlink="http://www.w3.org/1999/xlink" x="0px" y="0px"
     viewBox="-453 450.7 92.6 100.3" enable-background="new -453 450.7 92.6 100.3" xml:space="preserve">
<path fill="#ffffff" d="M-401.7,527.6L-401.7,527.6L-401.7,527.6z"/>
<path fill="#ffffff" d="M-361.1,488.2c-5.4-22.1-24-37.5-45.2-37.5c-25.8,0-46.7,22.5-46.7,50.2c0,27.7,21,50.1,46.7,50.1
    c15,0,29.2-7.9,38-21l0.1-0.1c0.5-0.8,0.8-1.3,1.4-2.2c1-1.9,1.1-2.7,0.8-4.3c0-0.2-0.1-0.4-0.1-0.6c0-0.1,0-0.1-0.1-0.2
    c-0.6-1.7-2.2-3.4-4.5-4.8l-0.1-0.1c-0.7-0.4-1.4-0.7-2.2-1.1c0,0-0.1,0-0.2-0.1c-0.3-0.1-0.6-0.2-0.9-0.3c-0.6-0.2-1.2-0.2-1.8-0.2
    c-0.4,0-0.8,0-1,0.1c-1.3,0.3-2.4,1.3-3.1,2.1c-0.3,0.4-0.5,0.7-0.6,0.9c0,0-0.1,0.1-0.1,0.1c-5.7,9.7-15.2,15.5-25.6,15.5
    c-11.1,0-21.4-6.7-26.8-17.6c-0.3-0.7-1.8-4.2-0.5-6.3c0.9-1.4,2.8-2.1,5.8-2.1l9.9,0c0.3,0,3.3-0.2,4.8-2.7
    c0.1-0.1,1.3-2.1,1.7-4.3l0.1-0.7c0.1-0.4,0.5-2.7,0.3-5.1c0,0,0,0,0,0c-0.2-9.6-9.7-5.3-12.8-4.3c-3.5,1.2-6.4,0.6-7.1,0.5
    c-1.3-0.3-2.2-0.9-2.7-1.7c-1.4-2.1,0.2-5.6,0.5-6.3l0.1-0.2c5.4-10.7,15.6-17.4,26.7-17.4c11.2,0,21.5,6.8,26.9,17.8
    c0.5,1.2,1.6,4.2,0.4,6.1c-0.7,1-1.9,1.7-3.8,1.9c-1.3,0.1-3.3,0-5.5-0.7c-3.1-1-12.5-5.3-12.8,4.3c0,0.1,0,0.2,0,0.3
    c-0.1,1.2,0,2.4,0.1,3.3c0.1,0.7,0.2,1.5,0.3,2.1c0.3,1.4,0.9,2.7,1.2,3.4c1.3,3.3,5.1,3.6,5.3,3.6l15.7,0
    c3.2-0.1,11.1-0.9,15.4-6.4C-360.4,499-359.7,494.2-361.1,488.2z"/>
</svg>
